<svg xmlns="http://www.w3.org/2000/svg" width="1920" height="1080" viewBox="0 0 1920 1080" role="img" aria-label="Painel abstrato de performance digital">
  <defs>
    <linearGradient id="backdrop" x1="0" x2="1" y1="0" y2="1">
      <stop offset="0" stop-color="oklch(19% 0.035 265)" />
      <stop offset="0.48" stop-color="oklch(13% 0.026 260)" />
      <stop offset="1" stop-color="oklch(18% 0.04 25)" />
    </linearGradient>
    <radialGradient id="pulse" cx="68%" cy="33%" r="52%">
      <stop offset="0" stop-color="oklch(72% 0.17 185)" stop-opacity="0.52" />
      <stop offset="1" stop-color="oklch(72% 0.17 185)" stop-opacity="0" />
    </radialGradient>
  </defs>
  <rect width="1920" height="1080" fill="url(#backdrop)" />
  <rect width="1920" height="1080" fill="url(#pulse)" />
  <g opacity="0.28" fill="none" stroke="oklch(91% 0.02 255)" stroke-width="2">
    <path d="M120 760 C 430 570, 690 690, 960 500 S 1430 310, 1760 420" />
    <path d="M120 820 C 450 650, 720 720, 1010 560 S 1410 460, 1760 540" opacity="0.55" />
  </g>
  <g opacity="0.5">
    <circle cx="460" cy="620" r="7" fill="oklch(68% 0.21 27)" />
    <circle cx="790" cy="610" r="7" fill="oklch(76% 0.17 155)" />
    <circle cx="1120" cy="420" r="7" fill="oklch(72% 0.17 185)" />
    <circle cx="1490" cy="360" r="7" fill="oklch(68% 0.21 27)" />
  </g>
  <g opacity="0.18" fill="oklch(91% 0.02 255)">
    <rect x="1210" y="630" width="410" height="18" rx="4" />
    <rect x="1210" y="675" width="310" height="18" rx="4" />
    <rect x="1210" y="720" width="365" height="18" rx="4" />
  </g>
</svg>
